<svg xmlns="http://www.w3.org/2000/svg" width="96" height="96" fill="none" viewBox="0 0 96 96" id="edit"><path stroke="#000" stroke-width="5" d="M20.2098 66.3231C20.9568 65.0549 21.8615 63.8864 22.9023 62.8456L72.9319 12.8161C75.6527 10.0952 80.0642 10.0952 82.7851 12.8161V12.8161C85.506 15.537 85.506 19.9484 82.7851 22.6693L32.7555 72.6988C31.7147 73.7396 30.5463 74.6443 29.2781 75.3913L14.9596 83.825C12.8914 85.0433 10.5579 82.7098 11.7761 80.6415L20.2098 66.3231Z"></path><path stroke="#000" stroke-linecap="round" stroke-width="5" d="M44 84.6013L50.7832 80.1864C55.4931 77.1209 61.6687 77.5706 65.8848 81.286V81.286C70.325 85.199 76.8991 85.4667 81.6429 81.9279L87 77.9314"></path></svg>